<?xml version="1.0" standalone="no"?>
<!DOCTYPE svg PUBLIC "-//W3C//DTD SVG 20010904//EN"
 "http://www.w3.org/TR/2001/REC-SVG-20010904/DTD/svg10.dtd">
<svg version="1.0" xmlns="http://www.w3.org/2000/svg"
 width="1300.000000pt" height="1300.000000pt" viewBox="0 0 1300.000000 1300.000000"
 preserveAspectRatio="xMidYMid meet">

<g transform="translate(0.000000,1300.000000) scale(0.100000,-0.100000)"
fill="#000000" stroke="none">
<path d="M6110 12525 c-668 -67 -1288 -289 -1845 -661 -221 -148 -392 -289
-601 -498 -331 -332 -560 -649 -769 -1065 -31 -62 -50 -109 -44 -105 7 4 3 -6
-9 -23 -76 -106 -225 -571 -286 -888 -51 -268 -61 -380 -61 -700 0 -271 2
-313 23 -430 128 -713 528 -1603 1217 -2710 221 -356 569 -876 812 -1215 46
-63 115 -160 154 -215 283 -395 1073 -1419 1263 -1636 17 -19 67 -80 111 -134
44 -54 98 -120 120 -145 22 -26 98 -115 168 -198 71 -84 130 -152 132 -152 16
0 635 749 946 1145 278 354 678 880 795 1046 17 24 68 96 114 159 225 312 511
727 690 1005 131 203 320 505 320 511 0 3 13 24 29 47 15 23 89 148 163 277
528 921 825 1638 922 2230 63 383 27 885 -99 1374 -74 289 -145 478 -290 771
-209 420 -447 748 -781 1075 -169 166 -271 254 -424 367 -102 75 -293 203
-305 203 -3 0 -26 13 -49 30 -24 16 -113 65 -197 109 -452 234 -942 377 -1457
426 -187 18 -584 18 -762 0z m900 -1939 c0 -2 -8 -10 -17 -17 -16 -13 -17 -12
-4 4 13 16 21 21 21 13z m-248 -31 c511 -67 960 -328 1272 -738 269 -353 400
-772 383 -1227 -9 -230 -48 -416 -133 -627 -142 -352 -397 -664 -721 -881
-576 -387 -1368 -413 -1978 -66 -694 396 -1070 1190 -936 1975 141 819 797
1451 1621 1564 131 18 357 18 492 0z m2376 -2220 c17 -361 35 -1086 30 -1240
-5 -156 -23 -223 -77 -282 -55 -61 -114 -56 -168 15 -63 82 -68 121 -66 452 2
162 10 500 18 750 30 907 30 882 12 917 -9 17 -32 41 -51 53 -90 55 -113 133
-103 347 16 360 199 982 349 1183 l33 45 6 -1005 c3 -553 11 -1108 17 -1235z
m-5229 1572 c1 -294 3 -338 16 -344 9 -3 19 -2 22 1 4 4 14 221 23 484 9 262
19 483 23 490 10 15 43 16 52 2 4 -6 13 -219 21 -473 8 -254 17 -472 20 -484
5 -24 32 -31 39 -10 2 6 11 225 19 485 9 261 18 478 22 483 8 13 42 11 51 -3
4 -7 15 -228 24 -491 9 -262 19 -480 22 -483 3 -4 13 -4 22 -1 13 6 15 37 15
225 0 120 3 341 7 490 7 295 10 308 54 194 56 -150 80 -359 83 -707 1 -265 -8
-338 -52 -420 -16 -29 -41 -58 -61 -70 -57 -33 -108 -88 -119 -127 -6 -24 -7
-103 -1 -225 4 -103 13 -327 18 -498 6 -170 13 -371 16 -445 3 -74 7 -232 10
-350 3 -118 8 -291 11 -385 3 -107 1 -196 -6 -240 -13 -80 -52 -174 -85 -205
-32 -30 -83 -35 -122 -11 -41 26 -90 127 -102 212 -12 84 10 944 44 1780 7
186 11 348 8 360 -9 39 -48 84 -102 118 -121 78 -147 208 -131 648 12 319 50
536 108 623 16 24 17 19 23 -130 4 -85 7 -307 8 -493z"/>
<path d="M6380 10134 c-19 -3 -73 -12 -120 -20 -585 -105 -1054 -561 -1175
-1142 -24 -115 -36 -331 -25 -438 69 -665 543 -1181 1205 -1310 124 -25 386
-25 510 0 209 40 408 123 577 237 120 82 296 258 375 374 179 266 259 529 257
850 -1 167 -16 270 -65 430 -37 120 -139 324 -211 420 -77 104 -251 273 -352
343 -162 112 -380 203 -571 237 -88 16 -335 28 -405 19z m415 -149 c529 -118
929 -523 1042 -1055 28 -132 25 -402 -5 -539 -50 -224 -136 -399 -279 -573
-198 -239 -459 -396 -774 -464 -117 -26 -400 -26 -516 -1 -273 59 -499 182
-688 372 -192 193 -307 405 -366 676 -33 151 -34 391 -1 539 61 273 176 485
367 675 195 195 435 325 680 368 50 9 99 19 110 21 44 11 362 -4 430 -19z"/>
<path d="M5075 2953 c-11 -3 -67 -18 -125 -35 -496 -142 -860 -335 -1101 -584
-109 -113 -220 -292 -205 -331 3 -8 2 -12 -3 -8 -12 7 -31 -79 -38 -171 -7
-83 16 -208 54 -298 127 -305 516 -600 1018 -774 17 -6 55 -20 85 -31 99 -38
371 -110 550 -146 196 -39 501 -79 722 -95 188 -13 702 -13 883 0 1188 88
2106 486 2354 1021 51 110 65 174 65 289 0 115 -20 196 -74 307 -146 297 -522
567 -1040 747 -151 53 -300 96 -327 96 -11 -1 -68 -64 -148 -167 -157 -201
-198 -254 -193 -257 2 -2 64 -18 138 -36 450 -110 812 -276 1021 -468 78 -72
129 -159 129 -221 0 -159 -248 -363 -640 -529 -760 -320 -1943 -394 -2880
-181 -482 110 -878 286 -1089 485 -165 155 -174 265 -33 415 194 207 629 406
1141 521 l104 24 -39 46 c-21 25 -99 123 -173 217 -74 94 -134 170 -135 170
-1 -1 -10 -3 -21 -6z"/>
</g>
</svg>
